<svg width="6000" height="6000" viewBox="0 0 1588 1586" xmlns="http://www.w3.org/2000/svg" >
    <path d="m 566.3,1490 c -65.8,-4 -127.4,-27 -176.4,-68 -34.4,-28 -65.9,-76 -45.1,-124 15.1,-44 71.3,-63 111.4,-39 32.7,14 51.9,45 68.8,73 45.3,50 127,35 180.9,9 38.8,-19 76.5,-45 103.3,-80 -16.4,1 -31.7,3 -52,-1 -14.7,38 -90.2,57 -121.2,23 -8,-9 -9.1,-26 -15.7,-31 -55.9,-6 -107.8,-23 -150.3,-54 -5.5,-4 -9.5,-9 -9.5,-9 0,0 -5.5,15 -9.6,20 -23.9,30 -69.6,17 -97.2,0 -42.7,-25 -74.7,-61 -101.8,-103 -26.5,-38 -41.9,-98 -4.5,-134.4 17.4,-19.1 45.8,-25.9 70.2,-18 -6.7,-74 4.9,-154.2 45.4,-217.7 -16.8,-24.9 3.8,-59.4 15.5,-67.8 -35.4,-10.1 -40.7,-69.2 -1.6,-76.7 44.5,-12.3 78.7,-46.5 106.9,-81.5 40.3,-45.3 93.1,-76.6 148.1,-99.8 l 15.4,-45.8 -38.4,-72.4 c -3.7,-7 -5.9,-14.5 -6.7,-21.9 -2.7,-25.2 46.2,-30.6 76.5,-28.5 30.3,2.1 56.4,8.3 82.3,17 l 132.4,-63.2 c 6.6,-3.2 18.6,-4.4 23.3,3.5 l 61.5,101 c 14.7,-85.5 79.8,-162 158.8,-196.6 -4,6 -11,15.1 -13,19.7 2,-1.4 4,-2.7 8,-5.5 27,-15 60,-22.79 91,-21.94 -8,3.28 -16,12.44 -14,17.24 13,-12.4 40,-1.8 45,5.5 -1,-5.6 -6,-8.6 -13,-12.6 1,-0.2 6,-0.2 10,1.8 32,15.8 26,63.3 5,83.1 -6,5.7 -8,8 -9,9.5 1,-0.8 14,-6.4 21,-8.9 -21,29.1 -69,34.2 -94,31.9 4,2 16,6.6 25,8.4 -13,7.3 -44,7.5 -59,4.8 -10,-1.8 -16,-5.2 -17,-4.2 0,1.9 16,10 27,11.6 -49,13.7 -101,38.2 -127,84.3 4,2.5 8,3.5 14,4.9 5,-6.8 26,-36.3 28,-34.6 0,0 -6,14.5 -2,20.5 11,-33.3 55,-55.5 85,-56.1 -6,4.5 -25,16.3 -9,9.8 21,-7.8 49,-10.7 69,-4.2 -6,3.3 -11,9.1 -14,12.8 9,-0.4 6,-1.8 16,-0.6 26,3.2 34,33.7 23,47.5 9,-4.3 9,-27.1 9,-27 8,14.7 2,56.6 -34,45.3 6,10.2 12,9.3 21,14.2 -25,23.8 -44,23.7 -59,26 7,3.4 15,6.6 15,6.6 0,4 -22,6.7 -30,9.3 -23,16.8 -46,35 -70,52.2 42,5.4 87,-3.5 127,8.5 26,17.2 8,55.4 -5,74.4 -10,13.2 -21,25.5 9,17 48,-8.2 85,-38.7 102,-82.2 2,-4.9 5,-3.5 10,-2.4 21,4.8 50,11.1 71,14 19,9.9 2,32.8 -7,45.5 -49,68.2 -166,110 -247,62.2 l -21,7.6 c 39,33.6 97,11.6 142,17.3 58,10.4 103,59.8 87,119.8 -3,11.2 -8,10.8 -11,10.9 l -50,0.6 c -8,0.1 -8,2.4 -9,-10 -3,-38.8 -60,-63.7 -101,-62.4 -37,1.2 -81,-28.3 -96,-53.2 24,44.1 65,78.3 112,95.5 14,4.8 46,1.5 35,25.4 -8,18.8 -10,39.7 -23,55.4 -42,-6.6 -71,-36.8 -100,-63.9 -6,-4.7 -16,-20.2 -20,-19 13,68.8 16,139.9 9,209.5 74,7.8 138,48.8 192,93 37,31 67,64 82,109 5,46 -31,84 -58,110 -35,32 -77,59 -124,76 -50,18 -108,34 -163,6 -19,-10 -4,-21 6,-28 18,-13 -3,-34 -10,-48 -11,8 -55.6,5 -68.3,1 -27.9,57 -73.8,114 -123.5,153 -42.5,34 -90,60 -144.7,77 -38.2,12 -79.9,18 -121.2,16 z M 1239,208.5 c 0,-1.5 -3,1.7 0,0 z m 17,-87.8 c -1,-2.1 -1,1.5 0,0 z" />
    <path fill="#5ec4ae" d="m 1204,1135 c -6,-9 -20,-33 -53,-33 l 1,-37 c 20,-5 34,4 50,8 l 7,34 z M 977.3,898.4 c 0,0 -0.9,-7 0.3,-8.1 4.7,-4.7 19.4,-3.2 26.4,-9.3 9,-7.5 20,-32.1 25,-51.3 2,-13.5 3,-26 4,-39.7 0,-29.5 -3,-59.2 -10,-87.5 -4,-19 -8,-34.2 -17,-51.6 -1,-3.9 -6.8,-13.1 -5,-12.5 l 11,2.8 c 0,0 9,20.2 10,24.4 5,15.7 10,32.7 14,49.7 6,35.8 7,73 2,108.9 -3,19 -9,37 -19,53.6 -17,27.2 -41.7,20.6 -41.7,20.6 z M 1075,1292 v -8 l 15,-31 16,-58 2,-46 -6,-43 -15,-38 -29,-39 2,-39.9 24,13.9 33,38 13,29 9,28 7,46 v 56 l -11,52 -13,36 z" />
    <path fill="#005483" d="m 542.6,1205 c -17.7,-8 -34.9,-16 -50.9,-26 -16.5,-11 -37.8,-14 -45.6,-40 -9.2,-30 -46.5,-96 -44.5,-95 l 213.4,35 c 0,0 11.2,47 14.5,71 4.1,31 0.6,70 -0.6,76 -31.1,0 -52.9,-9 -86.3,-21 z m 223.7,-143 c -3.2,6 -39.9,-58 -37.4,-55 L 716.7,744.6 c 71.6,-23.2 155.4,6.9 196.2,43.1 31.5,27.9 33.4,58.2 39.6,90.3 3.9,20.2 2.1,97.9 -8.2,114.1 -25.2,-10 -71.1,-8 -78.3,2.4 -4.2,-1.3 -7.2,-1.9 -10.8,-2.6 -10,-1.9 -14.2,8 -21,15.1 -6.8,8 -9.3,11 -17.3,5 -7.3,-5 -40.6,32 -50.6,50 z m -158.7,-389.3 -67,-9.4 c 3.8,2.3 51.6,-33.3 59.6,-49.1 16.5,14.8 39.9,19.3 59.9,21.7 -14.3,5.9 -47.6,26.6 -52.5,36.8 z M 1214,590.1 c 3,-0.9 -1,1.4 0,0 z" />
    <path fill="#006f9b" d="m 692.5,976.8 c 20.8,11 37.9,30.2 60.5,60.2 10.9,-11 16.8,-26 22.6,-41 C 809.1,912.8 800.5,808.3 745,738.2 L 629,653.6 c 0.4,-1.6 -47.2,-11.4 -58.5,-9.4 -12,11.8 -36,24.8 -60.8,30.2 -14.3,3.1 -34.6,-1.3 -39.2,-6.4 1.5,3.2 4,8.1 6.5,18.9 1.1,4.7 -1.7,19.9 -3.1,24.3 -6.2,18.5 -19,32 -37.2,39.9 -22.3,9.7 -44.7,1.2 -49.2,-0.3 -15.1,20.4 -22.1,48.9 -30.6,72.5 -14.4,48.8 -20.3,107.1 -7.3,158 31.1,31.7 53.8,65.7 75,108.7 34.7,24 81,36 123.8,36 30.9,0 54.8,1 75.2,-13 -3.9,-14 -14.4,-47 -12.5,-70 1.3,-15 7.2,-40 20.2,-53.4 16.2,-16.9 35.9,-26.3 61.2,-12.8 z" />
    <path fill="#fff" d="m 547.7,672.9 c -19.3,0.1 -42.2,4.7 -55,10.6 -6.8,2 -22.3,10.9 -23.4,16.2 -1,4.2 -3.4,10 -4.7,16.5 25.4,-17.6 94.4,-35.7 142,-5.7 0.8,-10.3 3,-20 4.9,-21.8 -20,-9.3 -37.6,-15.3 -60,-15.8 -1.3,0 -2.5,0 -3.8,0 z m 60.2,50.3 c -0.2,0.1 -0.4,0.1 -0.6,0.2 -2.8,1.2 -10.1,18.1 -10,28.1 -5.1,25.5 17,40.5 28,59.5 14.2,26.9 9,58 -0.3,85.4 -8.3,27.5 -14.7,58.4 -23.7,84 -24.3,-55.2 -45.2,-112.5 -58.9,-171.5 -1.9,-8 -3.6,-19.9 -5.6,-30.3 10.3,-0.2 18.7,-1 23,-3.8 4.4,-2.8 7.6,-4.4 7.3,-9.3 -0.4,-4.8 -3.4,-7.8 -8.7,-7.5 l -86.9,5.3 c -7,0.4 -13.9,4 -14.4,13 -0.4,5.3 6.6,10.8 22.2,8.9 3.2,27.7 12.4,54.2 18,81.2 -15.5,40.5 -19.4,86 -22.9,127.4 -25.4,-44.1 -43.4,-125.7 -47.8,-145 -4.3,-19.2 -5.2,-36.5 -4.1,-55.4 13.4,-2.8 24.2,-9.5 19.8,-20.1 -2,-5.1 -12.5,-6.7 -24.3,-1.9 l -16.4,6.6 25.1,-31.7 -17.7,-1.7 c -40.8,45.2 -56.3,101.6 -55.4,153.5 0.8,43.3 15,85.7 39.5,120.9 29.4,42 74.8,70 128.2,73 35.7,2 74.9,-9 98,-27 -1.7,-17 -2.5,-25 3.3,-41 4.4,-12 -1.8,-15 1.5,-27.7 9,-33.7 20.6,-77.8 32.2,-109.4 12.4,-33.9 26.9,-68.8 23.1,-105.7 28.3,52.2 31.6,121.5 0.6,173.4 -6.9,6.3 -25.4,30.1 -24.5,32.6 1.3,3.5 17.4,-4.1 27.7,-1.1 15,-14.3 27.4,-36 34.5,-55.6 20.3,-56.2 9.7,-141.8 -35,-187.1 -23.7,5 -40.8,5.8 -61.9,-6.7 -5.4,-5.2 -9.6,-13.7 -12.9,-13.5 z m -228.1,94.9 c -0.1,17.1 -0.6,29.8 2.1,45.5 11.6,67.8 38.8,133.6 78.7,189.4 -8.7,-2 -15.7,-8 -22.2,-13 -57.7,-46.4 -84.5,-126.1 -66.4,-198.2 2.7,-11 3.1,-12.6 7.8,-23.7 z m 129.3,82.1 c 19.4,52.1 38.1,106.8 70,152.8 -12.4,9 -66.6,14 -81.8,9 -10.8,-52 -7.8,-112.2 11.8,-161.8 z" />
    <path d="m 724.1,710.4 c 0,5.6 26.8,16.3 22.8,24.3 -1.1,2.3 -24.4,8.3 -27.5,9 -20.9,4.6 -40.1,13.6 -76.5,8.5 -30.4,-4.3 -48.7,-27 -48.7,-44.7 0,-17.7 10.3,-45.2 51.4,-64.4 12.9,-5.9 37.6,-20.2 53.3,-6.2 18.3,16.5 25.2,63.9 25.2,73.5 z" />
    <path fill="#fff" d="m 1004,586.9 c -13.6,7.8 -30,20.9 -45.9,28.3 20.5,3.8 45.9,9 66.9,17.9 h 2 c -7,-15.8 -14,-31.6 -23,-46.2 z m -65.5,42.4 c -32.1,0.4 -51.6,13.1 -79.7,15 7.5,4.9 12.5,10.4 23,20.5 3.3,3.1 8.7,10 15.5,10.5 7.5,0.5 14.9,-3 16.8,-8 1.7,-4.7 -6.2,-6.9 -8.7,-9.9 -1.9,-2.3 1.2,-6 4.2,-6.2 10.3,-0.6 15.5,10.2 14.3,20.2 -1,7.9 -8,16.5 -17.3,18.4 -8.2,1.8 -18.9,-0.1 -22,-3.1 -2,-1.9 -17.2,-18 -26.9,-26 -13.2,-11 -27.4,-17.1 -45.5,-22.5 -23.1,-7 -48.1,-8.9 -64.2,-4.8 4.5,26.8 19.1,58.9 35.8,81 20.8,1.1 42.7,5.2 61.8,13 8.6,3.5 17.4,7.7 26.2,9.4 30,5.8 62.3,8.6 100.1,-7.4 4.3,-1.8 10.2,-6.5 15.1,-10.1 6.1,-4.6 12.9,3.3 4,10.2 -28.6,20.9 -62.3,22.2 -95.8,21.1 6.6,6.5 27,20.7 35.5,29.5 16,17 51.1,51.3 77.3,58.7 16,-46 7,-121.3 -16.3,-174.7 -3.9,-9 -11.3,-22 -16.7,-29.9 -2.2,-3.2 -7.5,-2.3 -12.1,-3 -9,-1.5 -17,-2 -24.4,-1.9 z m -204,4.9 c -19.6,2.5 -40.5,8.6 -58.3,17 -2.8,28 16.8,58.5 39,74.9 11.9,-5.3 35.1,-9.9 52.8,-9.9 -15,-24.6 -28.8,-53.2 -33.5,-82 z m 231,196.4 c 0.2,1 2.8,7.3 4.6,14.6 2.4,9.8 4.3,21.5 3.6,25.2 17.7,5.7 25.5,-9.4 29.3,-18.9 -11.7,-1.8 -35.5,-19.4 -37.5,-20.9 z" />
    <path d="m 477.2,689.4 c -0.1,22.3 -7.6,40.7 -30.9,56.6 -24.6,16.9 -66.6,10.8 -75.6,-12.2 -9,-23 14.4,-59.4 38.9,-76.4 15.1,-10.5 33.4,-18.7 48.2,-7.3 9.2,7 19.5,29.8 19.4,39.3 z" />
    <path fill="#008648" d="m 1163,1267 c -3,-1 -5,-6 -3,-11 1,-4 4,-7 6,-10 3,-4 -1,-7 3,-8 4,-1 7,9 7,15 0,9 -6,16 -13,14 z m -14,-18 c -6,-4 -5,-11 0,-13 3,-2 9,-1 12,-1 2,0 -1,3 -1,6 -1,6 -6,11 -11,8 z m 106,-66 c 1,-4 -3,-7 -2,-9 2,-2 11,-2 13,-2 4,0 7,3 8,7 1,6 -11,14 -19,4 z m 19,-13 c -10,-2 -17,-5 -17,-7 0,-2 2,-3 5,-3 5,0 8,-3 12,-5 17,-6 16,18 0,15 z m -49,-10 c -8,-8 -4,-15 2,-15 6,-1 14,4 14,11 0,3 -7,13 -16,4 z m 27,-7 c 0,0 -4,-15 -12,-15 -6,-1 -8,-12 -1,-16 6,-3 16,2 20,8 4,8 1,19 -3,24 -1,1 -3,1 -4,-1 z m 25,-3 c -3,0 -7,-1 -7,-3 -1,-2 1,-2 3,-3 4,-2 8,-9 12,-10 1,0 3,-1 5,0 3,2 5,4 4,8 -1,8 -11,11 -17,8 z m -9,-17 c -2,-8 -5,-18 -3,-24 2,-4 6,-5 10,-4 4,0 7,4 8,13 1,6 -12,25 -15,15 z m -8,-54 c 5,-3 12,-2 17,-1 2,0 3,0 5,1 2,2 3,4 -1,4 -3,0 -6,-1 -11,7 -3,6 -8,6 -12,5 -5,-2 -5,-12 2,-16 z m -107,16 c 22,1 41,17 55,32 l -5,-41 c -14,-9 -27,-19 -49,-15 z m 93,-20 c -12,-7 1,-22 13,-15 2,1 10,4 11,5 3,3 1,6 -1,4 -9,-4 -11,3 -13,5 -4,3 -8,2 -10,1 z m 39,-2 c -8,-10 0,-26 5,-28 5,-3 18,10 10,15 -4,2 -13,7 -12,12 0,2 -2,2 -3,1 z m -24,-24 c -2,-1 -5,-2 -9,-2 -4,0 -8,2 -12,2 -2,0 -4,-3 -5,-4 -2,-1 -3,-5 1,-10 4,-5 17,-3 23,3 3,2 5,6 5,8 1,3 0,4 -3,3 z m 11,-1 c -3,-2 -3,-15 -1,-16 2,0 12,1 13,6 1,4 -9,12 -12,10 z M 1059,368.3 c 6,-15.7 12,-25.4 23,-38.4 9,-10.7 25,-17.5 26,-17.8 0,0 -2,6.9 -2,8.3 -1,6.2 2,3.7 6,-1.4 12,-22.7 44,-23.6 66,-23.2 -2,9.5 0,16.1 0,16.1 -2,-1 18,-20.4 30,-5.5 13,16.9 -4,29.9 -21,26.5 0,2.1 8,7.5 8,7.5 0,1.6 -12,-1.1 -14,-3.7 3,6 10,13.7 10,13.7 0,0.1 -9,6.6 -21,11.5 -10,4.4 -35,-5.5 -35,-5.5 0,0 2,3 6,7.1 -21,-11.4 -52,-5.7 -66,-2.6 l -4,2.7 c 20,-1.4 23,3.5 23,3.5 -15,1.6 -32,11.7 -35,11.8 -3,0.2 -1,-7.1 0,-10.6 z m -31,-113.8 c 14,-30.1 41,-64.7 68,-86.5 -3,13.4 -1,28 -1,28 0,0 4,-9.4 7,-17.1 4,-12 20,-26.4 35,-35.6 17,-10.6 35,-15.1 47,-16.6 -5,4.6 -10,9.1 -9,17 0,0 1,-2.1 5,-5.7 10,-8.6 28,-12.7 42,-9.9 -17,3.2 -26,16.6 -24,18.9 6,-5.6 18,-19.6 37,-10.7 8,3.9 14,13.9 10,23.7 -4,13.3 -20,14.4 -30,16 -1,0.1 8,2.2 14,3.3 -11,0.8 -21,1.5 -30,-0.9 l -2,1.2 c 0,0 9,6.5 17,9.1 -36,18 -65,25.5 -96,25.8 -11,0.1 -22,-5.2 -22,-5.2 l 9,12 c 0,0 -15,1 -22,2 -7,1.1 -19,6.1 -26,8.7 -1,0.2 -9,8.2 -10,8.3 -2,0.4 16,0.8 16,0.8 -13,8 -25,17.3 -37,26.1 0,0 0,-9 2,-12.7 z" />
    <path fill="#fed100" d="m 971.5,423 c 3.7,-74.6 32.5,-151.8 89.5,-201 9,-5.5 22,-19.6 31,-14.8 -36,23.7 -65,55.6 -83,94.5 -18.9,37.4 -28.1,79 -32.5,120.6 l -2,1.6 z" />
    <path fill="#fed100" d="m 1026,450.8 c -1,-38.6 21,-77.4 53,-98.8 20,-3.1 -19,19.4 -21,28.5 -19,19.2 -23,48.3 -29,71.3 z" />
    <path fill="#fed100" d="m 490.6,652.5 c -29.7,-3.6 -23.6,-42.3 -17.7,-63.1 16.2,-48.5 60.3,-80.9 101.3,-108.6 86.7,-53.8 201.9,-75.2 297.1,-30.4 11,6.4 25.9,11.3 33.2,21.2 -13.5,20.2 10.2,38.8 24,51.1 13.5,12.4 30.3,23 45,33.6 -35.9,34.5 -102.4,58.2 -150,60.2 -21.1,-5.6 -36.4,-8.6 -56.6,-9.3 6.6,-25.7 -23.2,-4.8 -34.7,-3.3 -37.6,13.2 -83.4,19.5 -118.9,-1.8 -19,-24.4 -30.9,10.1 -45.8,19.1 -22.1,17.1 -47.8,32.6 -76.9,31.3 z" />
    <path fill="#fed100" d="m 655.2,730.8 c -18.8,-0.1 -46.5,-12.9 -35.9,-36.3 8.5,-17.4 24.9,-29.3 41.9,-37.1 -0.2,26.9 14.6,50.7 32.3,69.5 -11.8,4.5 -25.8,4 -38.3,3.9 z" />
    <path fill="#fed100" d="m 411.9,732.6 c -23.3,-1.2 -16.4,-30.7 -3.8,-42 10.1,-13.4 37.6,-29.9 46.8,-7.1 8,25.7 -17.1,52.3 -43,49.1 z" />
    <path fill="#fed100" d="m 1197,775 c -39,-21.5 -75,-52.9 -104,-91.5 -17,-22 -25,-49 -31,-76.1 18,48.7 57,89 99,116.2 14,9.8 36,15.9 48,16.8 3,0.2 7,2 6,6.2 -2,9.9 -8,24.1 -10,26.5 -1,1.3 -4,4.1 -8,1.9 z" />
    <circle cx="523.8" cy="559.9" r="18.36" />
    <circle cx="730.1" cy="512.2" r="18.36" />
    <path d="m 624.2,540.7 c 11.3,2.4 12.9,14 2.3,23.9 -4.9,4.7 -14.7,13.1 -19.8,14.2 -7.7,1.6 -14.8,0.2 -21.4,-1.7 -12.5,-3.5 -14.5,-15.5 -4.9,-24 10.7,-9.7 31.7,-15 43.8,-12.4 z" />
    <path fill="#ff8700" d="m 564.6,1452 c -35,-2 -68.5,-11 -98.4,-26 -31.8,-17 -64.7,-39 -82.7,-73 -12.2,-21 -8.9,-55 17.8,-62 29.2,-9 60.5,13 76.9,36 12.9,28 33.8,51 61.7,60 44.1,21 106.2,14 151.6,-2 30.2,-9 54.3,-23 80,-40 27.1,-18 52.3,-38 73.6,-63 17.4,-19 31.2,-39 43.7,-61 15.1,-5 30.7,-10 44.6,-17 -20,55 -57.2,104 -98.8,143 -17.9,16 -36.2,31 -57.6,43 -24.3,17 -53.3,30 -80.8,41 -42.3,14 -85.4,23 -131.6,21 z M 1106,1274 c 0,-3 2,1 0,0 z m 14,-43 c 2,0 1,0 0,0 z m -3,-3 c 0,-2 1,0 0,0 z m 77,-15 c 1,2 -3,1 0,0 z m 4,0 c 2,1 -2,1 0,0 z m 7,-7 v 1 z m -1,-5 v -1 z m -17,-1 c 2,-1 0,2 0,0 z m 5,-4 h -1 z m 6,-1 c 3,-1 -1,3 0,0 z m -3,0 h 1 z m 42,-13 c 0,-4 0,4 0,0 z m -110,0 c -1,-3 2,1 0,0 z m -8,-75 c -1,-2 1,-1 0,0 z m 2,0 1,-1 z m 2,-3 c 1,-3 1,1 0,0 z m -6,-2 c 1,-2 1,0 0,0 z m 66,-10 c 1,-2 1,2 0,0 z m -3,-2 c 2,-1 1,3 0,0 z m -96,-54 c -1,-1 2,0 0,0 z M 390.8,626.7 c 23.3,-5.3 46.2,-20.4 59.1,-30.4 -4.2,10.1 -1.6,29 -2.9,32.8 -17.4,6 -38.3,4.4 -56.2,-2.4 z m 532.3,-142.5 265.9,9.6 c -9,30.4 -72,81.5 -129,72.8 -71.6,-10.9 -126,-62.3 -136.6,-77.4 -0.9,-1.3 -0.6,-4.4 -0.3,-5 z" />
    <circle cx="1086" cy="1033" r="9.322" />
    <path d="m 722.4,1000 c 11.7,12 58.4,63 59,111 0.6,32 -37.9,68 -51.2,73 -20.5,8 -78.7,23 -88.7,-9 -7.5,-24 -23.2,-71 -26.5,-96 -8,-61 8.4,-85.3 26.5,-98.5 20.6,-15.1 42.9,-18.3 80.9,19.5 z" />
    <path fill="#454a55" d="m 684.5,1263 c -10.6,-2 -19.8,-4 -25.7,-14 -12.1,-20 -2,-45 -4,-68 1.4,-42 -11.6,-82 -20.4,-122 -1.7,-24 4.1,-54 29,-63 13,-4.7 26.4,6 35.3,14 24,21 40.6,48 52.2,77 12.7,44 8.2,93 -11.6,133 -6.6,14 -15.3,28 -28.3,37 -7.7,4 -17,6 -26.5,6 z m 16.3,-29 c 10.8,-1 18.4,-12 24,-21 2.9,-10 12.9,-26 1,-33 -13.4,-6 -29.7,-1 -44.3,-4 -18.2,5 -11.5,34 -5.1,47 5.2,7 13.5,14 24.4,11 z m -30.4,-99 c 16,-13 42.8,-15 61.8,-5 6.1,-16 1.6,-36 -3.2,-53 -6.9,-21 -18.7,-43 -40.6,-50 -21,-5 -34.9,17 -36.3,35 -2.3,25 3.6,52 17.7,73 z m 98.2,92 c 1.3,-13 7.6,-29 11.3,-44 9.6,-38 0.3,-85 -5.1,-103 4.2,-22 21,-39 35.5,-52 1.5,-1 2.9,0 4.1,2 3.5,5 20.3,23 30.1,3 3.7,-8 5.2,-18 8.9,-25 1.8,-4 7.4,-2 11.2,0 8.5,5 14.8,12 19.9,19 9.6,13 14.3,30 18.2,46 6.2,25 6.1,60 1.1,85 -2.6,14 -6.2,20 -12,33 -1.8,4 -3.9,6 -4.9,8 -3.1,-1 -5.7,-9 -7.5,-14 -2.4,-7 -4.2,-16 -4.3,-24 -0.1,-9 1.3,-18 -5.6,-24 -9.2,-8 -16,10 -19,19 -6,19 -5.4,40 -1.1,59 -12.9,5 -26.7,7 -40.6,10 -13.2,1 -26.8,4 -40.2,2 z m -364.2,-35 c -9.2,-3 -18,-6 -26.5,-11 -9.1,-4 -18,-12 -26,-16 -11.8,-10 -26.1,-22 -36.4,-33 -23.1,-25 -44.4,-53 -54.7,-86 -6.9,-28 17.8,-59.4 47.7,-55.4 25.9,-0.4 39.6,24.4 54.1,41.4 28,40 51.3,83 65.2,129 4,16 -7,32 -23.4,31 z m -12.5,-24 c 19.4,-4 12.5,-27 6.4,-41 -3.8,-9 -9.8,-16 -16.1,-15 -5.8,0 -11.8,7 -16.9,12 -10.7,9 -16.7,16 -7.8,23 9.4,8 23.1,24 34.4,21 z m -62.2,-54 c -0.9,-23 17.8,-44 40.1,-44 1,-11 -9.7,-21 -15.8,-30 -13.8,-15 -36,-33 -58.1,-23 -16.9,12 -11.5,37 -4.3,53 8.2,17 19.4,33 34.7,44 1,-1 2.7,1 3.4,0 z" />
    <path fill="#fff" d="m 1004,1101 -7.8,27 -48.9,51 -42.9,18 5.1,-40 7.9,-46 -9,-54 -21.4,-52 78.5,-11.1 52.5,18.1 z" />
    <path fill="#008648" d="m 1108,1291 h -24 c 0,0 22,-47 28,-76 3,-18 6,-34 5,-64 0,-22 -6,-47 -11,-64 -6,-19 -27,-48 -31,-52 -5,-4 -13,-10 -13,-10 l -2,-25 3,1 c 2,1 22,13 33,28 8,10 17,25 22,36 6,13 14,40 16,55 4,22 4,43 3,65 0,16 -3,35 -11,66 -3,13 -18,40 -18,40 z" />
    <path fill="#e80525" d="m 1077,1304 c -9,0 -17,-2 -17,-2 0,0 12,-18 16,-25 20,-39 34,-94 29,-144 -4,-34 -17,-65 -37,-88 -4,-5 -6,-12 0,-7 1,1 1,2 3,3 51,59 49,156 17,223 -4,10 -10,23 -10,23 14,0 27,0 42,-3 0,0 6,-13 10,-24 15,-43 17,-87 12,-134 2,0 5,1 5,1 0,-5 3,17 3,32 1,13 0,27 -1,34 -4,31 -10,61 -21,89 15,-1 33,-8 48,-13 22,-8 42,-17 61,-29 18,-10 35,-24 51,-37 12,-12 25,-26 35,-41 9,-13 17,-32 19,-48 14,19 -1,46 -8,60 -8,16 -18,27 -33,41 -13,13 -25,22 -41,33 -28,19 -56,32 -88,43 -30,9 -62,14 -95,13 z m -19,-78 c 0,0 8,-27 11,-39 3,-10 9,-56 9,-56 0,1 1,14 1,18 3,30 -3,62 -14,90 -3,-5 -7,-13 -7,-13 z m -91.5,-9 c -0.3,-3 7.7,-11 11.8,-19 33.7,-61 51.7,-133 46.7,-204 -1,-22.3 -5,-44.9 -10,-66.3 l 3,2 c 20,70.1 13,150.3 -5,220.3 -6,24 -15.3,48 -25.9,70 -7,-1 -14.3,0 -20.6,-3 z m 47.5,-1 c 18,-17 25,-43 32,-66 -4,21 -8,45 -21,63 -1,-1 -9,5 -11,3 z m -95.9,-31 c -3.4,-1 -5.7,-3 -8,-6 l 4.1,-9 c 4,4 9.5,7 15.4,9 z m -2.4,-28 c -3.2,-4 -5.6,-13 1.7,-12 6.5,9 34.4,18 39.2,19 l -10.9,8 c -11.5,-4 -22.9,-6 -30,-15 z m 51.2,-1 c -14.3,-6 -34.6,-12 -49.2,-19 -0.7,-6 -1.3,-11 1.2,-10 l 57.6,22 c 4.1,-1 -3.4,6 -9.6,7 z m 80.1,-10 c 1,0 0,3 0,0 z m -67.4,-1 c -11.7,-16 -36.7,-33 -59,-30 -1.5,-6 -3.5,-9 -0.5,-10 8.2,-4 33.2,5 40.1,9 9.4,6 26.1,19 28.6,28 0.6,2 -6.3,4 -9.2,3 z m 221.4,4 c 0,0 -39,-30 -57,-35 3,-7 8,-12 9,-12 l 6,1 -4,8 c 15,5 33,20 40,26 l 3,-10 c 2,2 4,5 6,8 z m -212.9,-13 c -12.4,-22 -40.7,-54 -70.4,-52 -2.1,-6 -5.1,-11 -2,-12 7,-4 25.9,3 32.6,6 17.8,10 36.9,33 46.5,50 z m 10.1,-15 c -30.2,-49 -73.8,-71 -89.8,-64 l -0.9,-10 c 31.9,-14 85.1,34 94.5,59 -2,2 -1,19 -3.8,15 z m 138.8,-20 c -11,-43 -36,-90 -77,-109.2 0,-3.1 -6,-9.2 -3,-8.4 5,1.7 25,14.4 29,17.6 29,23 46,59 55,94 -2,0 -2,9 -4,6 z m -132,-6 c -13.9,-36 -63.4,-70 -107.3,-64 -3.2,-5 -7.5,-9 -4.2,-10 8.8,-4 43,0 50.9,3 17.7,6 33.8,17 47,30 1.9,-11 3.2,-35 6.7,-47 1.7,-2 3.9,6 9.9,3 l -4,38 c -1,6 -4,13 -4.4,16 l 8.4,12 z m 193,-23 -11,-4 c -3,-9 -7,-21 -11,-29 -4,-6 -17,-28 -16,-26 1,1 20,21 23,25 6,9 13,25 15,34 z m -43,-8 c 0,0 -2,-19 -22,-49 -14,-22.1 -35,-46 -52,-59.3 -8,-6.8 -21,-17.1 -33,-25.3 -8,-5.2 -16,-8.9 -22,-12.4 1,0.3 3,-1.3 4,-1 18,5.7 32,16.4 47,27.3 15,10.2 27,23.4 39,36.5 10,11.5 24,32.2 32,50.2 9,18 12,33 12,33 z m -171.9,-43 c -3.5,-3 -10,-6 -9.8,-9 0.1,-3 1.8,-14.8 4.3,-11 h 9.2 c -0.1,3 -2.5,15 -3.7,20 z m -5.6,-116.8 -0.1,-3.9 c 0,-0.9 41.6,-1.9 58.6,-6.7 13,-3.5 27,-14.5 27,-14.5 l -1,6.9 c -5,4.3 -14,9.6 -25,12.3 -20,4.4 -44.3,5.3 -59.5,5.9 z M 977,892.4 v -7.2 c 2.3,0.2 11.3,0.4 18.4,-3.2 5.6,-3 11.6,-9.6 14.6,-13.4 7,-9.4 16,-32.9 18,-61.4 3,-30.7 -1,-67.1 -6,-93.7 -5,-25.9 -15,-53 -28,-75.8 l 9,3.2 c 4,1.3 11,23.3 14,33.8 9,23.1 14,48.1 16,73.4 2,19.1 2,40.5 0,61.2 -2,22.5 -10,51.1 -17,61.2 -9,11.1 -16,18.7 -24.3,20.4 -3.3,0.7 -11,1.9 -14.7,1.5 z m 324,-164.7 c -11,-2.3 -8,-20.4 -15,-28.6 -27,-33.4 -74,-40.1 -116,-43.4 -29,-2.3 -58,-22.5 -71,-50.3 l 9,-1.4 c 5,7.5 9,12 15,16.5 46,32.8 110,0.1 160,23.2 32,12.3 56,42.9 51,78 -4,11.6 -24,8 -33,6 z M 835.3,630.1 c 27,-4.7 41.6,-7.4 56.1,-12.5 34.5,-12.2 67.9,-31.9 95,-53.1 l 11.4,6.1 c 0,0 -21,22.7 -72.9,43.5 -29,11.6 -66.7,19.1 -89.6,16 z M 990.1,443.7 c 4.1,-29.5 13.9,-54.1 20.9,-80.8 l 11,1.9 c -8,27.5 -16,55.4 -18,88.7 l -7.9,0.5 z m 58.9,-6.5 c 4,-15.7 31,-33.6 47,-34.8 -12,8.6 -36,28.2 -47,34.8 z M 955.4,408.1 C 889,353 805,335.5 722.8,341.2 c -7.7,0.5 -24.4,1.5 -44.2,7.7 -11.5,-21.7 -26,-49.8 -37.1,-70.2 33.1,-2.2 62.8,-3 90.5,4.9 13.2,3.8 28.4,17.8 32.6,21.4 l 31.9,27.4 c 4.7,4 16.7,2.6 21.6,-3.5 2.3,-2.8 8.5,-14.6 -1.8,-23.7 L 790.5,282.4 896.4,232 c 19.4,31.2 39.4,66 58.2,97.9 -10.4,2.3 -21.7,4.7 -32,7.8 -9.2,2.8 -19.2,4.6 -20.2,14.8 -2.5,26.6 25.7,18.2 42.4,14.5 l 24,-5.4 c -3,16 -5.5,34.4 -8.7,50.4 z" />
    <path d="m 947.3,995.2 -64.9,6.8 25,60 7.2,48 -15.4,90 h 18.3 l 55.4,-31 30.1,-51 16,-106 -53.4,-18.6 z m 14.5,3.2 c 17.7,4.6 34.6,9.6 51.2,16.6 -2,38 -9,87 -17.7,111 -1.9,5 -22.5,26 -35.5,35 -16.9,12 -33,20 -51.9,27 3.5,-5 11.8,-33 12.6,-65 0.8,-26 -5.1,-56 -9.3,-70 -5.4,-19 -22,-44 -22.4,-44 14.6,-2 49.9,-7 83.9,20 11.1,10 13.8,5 15.1,3 2.3,-3 0,-8 -2.1,-12 -5.4,-8 -14.7,-16 -23.9,-21.6 z" />
    <path fill="#00beeb" d="m 1163,579.4 11,-7.5 c 0,0 19,4 27,2.4 24,-0.3 53,-8.5 72,-18.6 25,-12.5 43,-26.8 56,-48.1 5,-8.6 8,-12.1 17,-10.2 6,1.1 15,2.7 21,3.1 9,0.5 9,6.4 5,15.3 -5,10.4 -13,20.8 -21,28.5 -4,4.4 -11,9.3 -15,12.5 -9,6.3 -19,12.1 -29,16.4 -26,11.3 -55,18.1 -84,17.8 -20,-0.2 -43,-3.8 -60,-11.6 z" />
    <g fill="#fff">
        <circle cx="1072" cy="1020" r="9.457" />
        <circle cx="1098" cy="1050" r="9.456" />
        <circle cx="1114" cy="1248" r="10.74" />
        <circle cx="1115" cy="1085" r="9.456" />
        <circle cx="1125" cy="1124" r="10.36" />
        <circle cx="1125" cy="1206" r="9.946" />
        <circle cx="1128" cy="1164" r="9.947" />
        <circle cx="1160" cy="1082" r="9.946" />
        <circle cx="1202" cy="1100" r="12.48" />
        <circle cx="1317" cy="1091" r="28.42" />
    </g>
    <g fill="#f00">
        <circle cx="1106" cy="1270" r="10.83" />
        <circle cx="1087" cy="1034" r="9.321" />
        <circle cx="1107" cy="1067" r="9.321" />
        <circle cx="1120" cy="1104" r="9.321" />
        <circle cx="1120" cy="1227" r="10.83" />
        <circle cx="1127" cy="1144" r="9.321" />
        <circle cx="1127" cy="1185" r="10.14" />
        <circle cx="1185" cy="1089" r="11.54" />
        <circle cx="1195" cy="1206" r="32.68" />
        <circle cx="1239" cy="1182" r="24.18" />
    </g>
    <g fill="#fed100">
        <circle cx="1071" cy="1019" r="3.119" />
        <circle cx="1086" cy="1034" r="3.119" />
        <circle cx="1098" cy="1050" r="3.119" />
        <circle cx="1107" cy="1067" r="3.119" />
        <circle cx="1115" cy="1085" r="3.119" />
        <circle cx="1120" cy="1103" r="3.119" />
        <circle cx="1125" cy="1124" r="3.119" />
        <circle cx="1127" cy="1143" r="3.119" />
        <circle cx="1128" cy="1164" r="3.119" />
        <circle cx="1126" cy="1184" r="3.119" />
        <circle cx="1125" cy="1205" r="3.119" />
        <circle cx="1120" cy="1228" r="3.119" />
        <circle cx="1115" cy="1249" r="3.119" />
        <circle cx="1106" cy="1270" r="3.119" />
        <circle cx="1196" cy="1204" r="9.313" />
        <circle cx="1240" cy="1182" r="3.119" />
        <circle cx="1319" cy="1092" r="8.189" />
        <circle cx="1159" cy="1082" r="3.119" />
        <circle cx="1184" cy="1089" r="3.119" />
        <circle cx="1202" cy="1102" r="3.119" />
    </g>
    <path d="m 918.5,848.7 9.4,2.4 c 8.8,42.9 7,51.3 7.4,72.6 l -8.1,-0.5 z" transform="matrix(0.9999,0,0,0.9999,132.5,132)" />
    <path d="m 1006,923.3 13,-1.2 c 2,-1.2 11,37.7 -1,53.7 l -6,8.2 c 6,1 11,3.7 16,5.6 l -4,10.4 c 0,-0.1 -9,-2.1 -17,-4.1 -5,-1.1 -8.5,-4.4 -10,-7.8 -1,-2.1 -0.9,-7.5 0.4,-9.4 3.6,-4.2 8.6,-10.6 9.6,-12.6 7,-17.8 3,-31.3 -1,-42.8 z" transform="matrix(0.9999,0,0,0.9999,132.5,132)" />
    <path d="m 1185,1037 20,28 c 7,16 15,30 15,47 -1,8 -11,45 -14,53 l -4,-16 c 8,-31 -2,-85 -17,-112 z" transform="matrix(0.9999,0,0,0.9999,0,-8.933e-5)" />
    <path transform="matrix(0.9999,0,0,0.9999,0,-8.933e-5)" d="m 1275,1015 c 31,22 62,41 80,79 4,10 6,23 9,33 l -7,19 c -10,-20 -15,-42 -41,-69 -12,-13 -28,-27 -51,-47 z" />
    <path fill="#5fc5ae" d="m 1005,376.2 c 0,13 -17.2,27.1 -43.9,27.2 -26.9,0 -54.4,-1.5 -56.1,-24.9 -1,-13 11.8,-30.9 38.7,-30.9 26.7,0.1 61.3,11.6 61.3,28.6 z" transform="matrix(0.9446,-0.3279,0.3279,0.9446,132.5,132)" />
    <path fill="#5fc5ae" transform="matrix(0.9446,-0.3279,0.3279,0.9446,132.5,132)" d="m 926,521 c 0.1,13.1 -18.3,17.9 -32.6,17.6 -26.9,-0.6 -40,-10.8 -42.4,-20.9 -1.6,-7 12.9,-21.4 35.3,-19.1 21.8,2.4 39.5,10.2 39.7,22.4 z" />
    <path fill="#fed100" d="m 1043,190.3 c 3,10.2 -11,18.9 -22,22.5 -23.2,6.9 -37,2.5 -41.3,-4.9 -3.6,-4.9 4.3,-20.1 23.3,-24.3 18,-4 36,-2.8 40,6.7 z" transform="matrix(0.9999,0,0,0.9999,132.5,132)" />
    <path fill="#fed100" d="m 1066,29.51 c 3,10.23 -8,21.58 -28,31.48 -9,4.39 -43.5,14.87 -51.1,-3.09 -4.9,-9.9 0.8,-27.45 22.1,-34.78 22,-7.24 53,-7.01 57,6.39 z" transform="matrix(0.9999,0,0,0.9999,132.5,132)" />
    <g fill="#016f9b" >
        <ellipse cx="1004" cy="200.5" rx="20.42" ry="20.67" transform="matrix(0.9999,0,0,0.9999,132.5,132)" />
        <ellipse cx="1016" cy="45.59" rx="28.81" ry="29.16" transform="matrix(0.9999,0,0,0.9999,132.5,132)" />
    </g>
    <g fill="#00beeb">
        <circle cx="1136" cy="332.5" r="17.71" />
        <circle cx="1148" cy="177.6" r="25.5" />
    </g>
    <g fill="#0c40a8">
        <path d="m 1137,313.7 c -5,0.5 -11,6 -10,12.1 0,3.6 1,6.9 4,8.9 0,1.1 0,2 0,3 1,6.1 6,10.6 12,10.3 6,-0.6 14,-8.5 11,-20.4 -2,-12.1 -9,-13.7 -17,-13.9 z" transform="matrix(0.9999,0,0,0.9999,0,-8.933e-5)" />
        <path d="m 1154,154.8 c -8,0.1 -16,7.1 -16,15.4 0,4.9 2,9.6 6,12.6 0,1.4 0,2.7 0,4.1 0,8.3 7,15.1 15,15.2 8,-0.1 20,-10.2 17,-26.9 -2,-16.7 -11,-19.4 -22,-20.4 z" transform="matrix(0.9999,0,0,0.9999,0,-8.933e-5)" />
    </g>
    <path fill="#111622" d="M 1034 916.2 L 1030 917 C 1062 933.4 1080 942.9 1107 971.1 C 1128 993.6 1149 1020 1160 1064 C 1180 1064 1181 1066 1187 1068 C 1181 1048 1174 1034 1163 1018 C 1151 999.7 1131 983.9 1113 966.8 C 1094 947.9 1067 930.5 1034 916.2 z M 980.7 920.9 C 978.9 944.4 977.2 968.1 971.4 988.4 C 988.5 991.7 1001 995.7 1012 1000 C 1010 974.3 1009 948.8 1000 921.8 L 980.7 920.9 z M 1018 929.7 C 1025 959.5 1031 991.9 1030 1025 C 1030 1053 1027 1082 1022 1110 C 1015 1145 1004 1181 987.1 1220 L 1011 1219 C 1030 1203 1048 1162 1053 1114 C 1058 1061 1057 988.8 1026 933.3 L 1018 929.7 z M 1049 948.3 L 1061 985.5 C 1090 999.4 1122 1026 1141 1095 C 1143 1087 1143 1079 1143 1071 C 1121 990.3 1055 953.6 1049 948.3 z " />
</svg>
